<svg xmlns="http://www.w3.org/2000/svg" viewBox="0 0 320 180" width="320" height="180"><rect x="0" y="0" width="320" height="180" rx="0" fill="#212529"/><rect x="24" y="40" width="128" height="11" rx="3" fill="#6b7280"/><rect x="24" y="58" width="112" height="9" rx="2.5" fill="#6b7280"/><rect x="24" y="78" width="120" height="4" rx="2.5" fill="#dee2e6"/><rect x="24" y="87" width="120" height="4" rx="2.5" fill="#dee2e6"/><rect x="24" y="96" width="74.4" height="4" rx="2.5" fill="#dee2e6"/><rect x="24" y="116" width="44" height="13" rx="6" fill="#0d6efd"/><rect x="68" y="116" width="44" height="13" rx="6" fill="none" stroke="#6b7280" stroke-width="1"/><rect x="168" y="30" width="128" height="120" rx="3" fill="#343a40"/><circle cx="201" cy="68" r="10.8" fill="#ced4da"/><path d="M178 131 L217 90 L245 116 L268 97 L286 131 Z" fill="#ced4da"/></svg>
