<svg xmlns="http://www.w3.org/2000/svg" viewBox="0 0 320 180" width="320" height="180"><rect x="0" y="0" width="320" height="180" rx="0" fill="#ffffff"/><rect x="16" y="24" width="112" height="9" rx="3" fill="#adb5bd"/><rect x="16" y="46" width="288" height="5" rx="2.5" fill="#dee2e6"/><rect x="16" y="55" width="288" height="5" rx="2.5" fill="#dee2e6"/><rect x="16" y="64" width="288" height="5" rx="2.5" fill="#dee2e6"/><rect x="16" y="73" width="178.56" height="5" rx="2.5" fill="#dee2e6"/><rect x="16" y="88" width="128" height="7" rx="2.5" fill="#dee2e6"/><rect x="16" y="106" width="288" height="5" rx="2.5" fill="#dee2e6"/><rect x="16" y="115" width="288" height="5" rx="2.5" fill="#dee2e6"/><rect x="16" y="124" width="178.56" height="5" rx="2.5" fill="#dee2e6"/><rect x="16" y="142" width="240" height="5" rx="2.5" fill="#dee2e6"/><rect x="16" y="151" width="148.8" height="5" rx="2.5" fill="#dee2e6"/></svg>
